<svg width="342" height="169" viewBox="0 0 342 169" fill="none" xmlns="http://www.w3.org/2000/svg">
<path d="M256.005 27.8682H5.4072C2.43545 27.8682 0.0263672 30.2772 0.0263672 33.249V162.92C0.0263672 165.892 2.43545 168.301 5.4072 168.301H256.005C258.977 168.301 261.386 165.892 261.386 162.92V33.249C261.386 30.2772 258.977 27.8682 256.005 27.8682Z" fill="url(#paint0_linear_0_1)"/>
<path d="M240.322 52.1528C243.254 52.1528 245.632 49.7754 245.632 46.8427C245.632 43.9101 243.254 41.5327 240.322 41.5327C237.389 41.5327 235.012 43.9101 235.012 46.8427C235.012 49.7754 237.389 52.1528 240.322 52.1528Z" fill="white"/>
<path d="M222.659 52.1528C225.591 52.1528 227.969 49.7754 227.969 46.8427C227.969 43.9101 225.591 41.5327 222.659 41.5327C219.726 41.5327 217.349 43.9101 217.349 46.8427C217.349 49.7754 219.726 52.1528 222.659 52.1528Z" fill="white"/>
<path d="M204.993 52.1528C207.925 52.1528 210.303 49.7754 210.303 46.8427C210.303 43.9101 207.925 41.5327 204.993 41.5327C202.06 41.5327 199.683 43.9101 199.683 46.8427C199.683 49.7754 202.06 52.1528 204.993 52.1528Z" fill="white"/>
<path d="M261.386 64.3306H0.0263672V68.3308H261.386V64.3306Z" fill="white"/>
<path d="M335.708 92.0845H74.2776C70.817 92.0845 68.0117 94.8898 68.0117 98.3503V132.016C68.0117 135.476 70.817 138.282 74.2776 138.282H335.708C339.168 138.282 341.974 135.476 341.974 132.016V98.3503C341.974 94.8898 339.168 92.0845 335.708 92.0845Z" fill="url(#paint1_linear_0_1)"/>
<path d="M82.4551 108.935V121.467C82.4551 121.679 82.6675 121.785 82.8445 121.679L93.4999 115.413C93.4999 115.413 93.6769 115.059 93.4999 114.953L82.8445 108.687C82.8445 108.687 82.4551 108.687 82.4551 108.9V108.935Z" fill="white"/>
<path d="M321.477 109.147H108.581C105.257 109.147 102.562 111.842 102.562 115.165C102.562 118.489 105.257 121.183 108.581 121.183H321.477C324.801 121.183 327.495 118.489 327.495 115.165C327.495 111.842 324.801 109.147 321.477 109.147Z" fill="white"/>
<path d="M218.25 109.147H108.581C105.257 109.147 102.562 111.842 102.562 115.165C102.562 118.489 105.257 121.183 108.581 121.183H218.25C221.574 121.183 224.268 118.489 224.268 115.165C224.268 111.842 221.574 109.147 218.25 109.147Z" fill="#CAFF1F"/>
<rect x="114.026" y="0.868164" width="63.6305" height="64.5" rx="31.8152" fill="url(#paint2_linear_0_1)"/>
<path d="M146 9C141.253 9 136.613 10.4076 132.666 13.0447C128.72 15.6819 125.643 19.4302 123.827 23.8156C122.01 28.201 121.535 33.0266 122.461 37.6822C123.387 42.3377 125.673 46.6141 129.029 49.9706C132.386 53.327 136.662 55.6128 141.318 56.5388C145.973 57.4649 150.799 56.9896 155.184 55.1731C159.57 53.3566 163.318 50.2805 165.955 46.3337C168.592 42.3869 170 37.7467 170 33C169.993 26.6369 167.463 20.5363 162.963 16.0369C158.464 11.5374 152.363 9.00672 146 9ZM146 53.3077C141.984 53.3077 138.057 52.1167 134.718 49.8852C131.378 47.6538 128.775 44.4822 127.238 40.7714C125.701 37.0607 125.299 32.9775 126.083 29.0382C126.866 25.0989 128.8 21.4804 131.64 18.6403C134.48 15.8002 138.099 13.8661 142.038 13.0825C145.977 12.2989 150.061 12.7011 153.771 14.2381C157.482 15.7752 160.654 18.3781 162.885 21.7176C165.117 25.0572 166.308 28.9835 166.308 33C166.302 38.3841 164.16 43.5458 160.353 47.353C156.546 51.1601 151.384 53.3016 146 53.3077ZM134.923 28.3846C134.923 27.8369 135.085 27.3015 135.39 26.8461C135.694 26.3907 136.127 26.0358 136.633 25.8262C137.139 25.6166 137.695 25.5617 138.233 25.6686C138.77 25.7754 139.263 26.0392 139.65 26.4265C140.038 26.8138 140.301 27.3072 140.408 27.8444C140.515 28.3815 140.46 28.9383 140.251 29.4444C140.041 29.9504 139.686 30.3829 139.231 30.6871C138.775 30.9914 138.24 31.1538 137.692 31.1538C136.958 31.1538 136.254 30.8621 135.734 30.3428C135.215 29.8234 134.923 29.1191 134.923 28.3846ZM157.077 28.3846C157.077 28.9323 156.915 29.4677 156.61 29.9231C156.306 30.3785 155.873 30.7335 155.367 30.943C154.861 31.1526 154.305 31.2075 153.767 31.1006C153.23 30.9938 152.737 30.73 152.35 30.3428C151.962 29.9555 151.699 29.462 151.592 28.9249C151.485 28.3877 151.54 27.8309 151.749 27.3249C151.959 26.8189 152.314 26.3864 152.769 26.0821C153.225 25.7778 153.76 25.6154 154.308 25.6154C155.042 25.6154 155.747 25.9071 156.266 26.4265C156.785 26.9458 157.077 27.6502 157.077 28.3846ZM156.828 43.1538C156.961 43.364 157.051 43.5989 157.091 43.8446C157.132 44.0903 157.122 44.3416 157.063 44.5835C157.004 44.8253 156.896 45.0527 156.747 45.2519C156.597 45.4511 156.409 45.618 156.194 45.7426C155.978 45.8672 155.739 45.9469 155.492 45.9769C155.245 46.007 154.994 45.9867 154.755 45.9173C154.516 45.8479 154.294 45.7309 154.101 45.5733C153.908 45.4156 153.749 45.2206 153.634 45C151.91 42.0208 149.201 40.3846 146 40.3846C142.799 40.3846 140.09 42.0231 138.366 45C138.251 45.2206 138.092 45.4156 137.899 45.5733C137.706 45.7309 137.484 45.8479 137.245 45.9173C137.006 45.9867 136.755 46.007 136.508 45.9769C136.261 45.9469 136.022 45.8672 135.806 45.7426C135.591 45.618 135.403 45.4511 135.253 45.2519C135.104 45.0527 134.996 44.8253 134.937 44.5835C134.878 44.3416 134.868 44.0903 134.909 43.8446C134.949 43.5989 135.039 43.364 135.172 43.1538C137.547 39.0485 141.493 36.6923 146 36.6923C150.507 36.6923 154.453 39.0461 156.828 43.1538Z" fill="white"/>
<defs>
<linearGradient id="paint0_linear_0_1" x1="130.706" y1="-1.58016" x2="129.025" y2="150.813" gradientUnits="userSpaceOnUse">
<stop offset="0.132773" stop-color="#DBDBDB"/>
<stop offset="1" stop-color="white" stop-opacity="0"/>
</linearGradient>
<linearGradient id="paint1_linear_0_1" x1="353.974" y1="117.82" x2="-65.093" y2="110.386" gradientUnits="userSpaceOnUse">
<stop stop-color="#CAFF1F"/>
<stop offset="1" stop-color="white" stop-opacity="0"/>
</linearGradient>
<linearGradient id="paint2_linear_0_1" x1="114.026" y1="29.4478" x2="159.674" y2="29.4478" gradientUnits="userSpaceOnUse">
<stop stop-color="#CAFF1F"/>
<stop offset="0.676598" stop-color="#32FECA"/>
</linearGradient>
</defs>
</svg>
